<?xml version="1.0" standalone="no"?>
<!DOCTYPE svg PUBLIC "-//W3C//DTD SVG 20010904//EN"
 "http://www.w3.org/TR/2001/REC-SVG-20010904/DTD/svg10.dtd">
<svg version="1.0" xmlns="http://www.w3.org/2000/svg"
 width="250.000000pt" height="50.000000pt" viewBox="0 0 250.000000 50.000000"
 preserveAspectRatio="xMidYMid meet">

<g transform="translate(0.000000,50.000000) scale(0.100000,-0.100000)"
fill="#000000" stroke="none">
<path d="M130 227 c0 -85 3 -156 6 -159 3 -3 14 -4 25 -1 18 5 19 15 19 159
l0 154 -25 0 -25 0 0 -153z"/>
<path d="M1269 351 c-57 -57 -27 -119 68 -140 77 -18 93 -27 93 -56 0 -41 -39
-59 -115 -52 -59 4 -65 3 -65 -14 0 -17 8 -19 84 -19 76 0 87 3 115 26 23 19
31 34 31 58 0 45 -33 72 -107 90 -76 17 -83 22 -83 50 0 37 19 46 97 46 66 0
73 2 73 20 0 18 -7 20 -81 20 -76 0 -82 -2 -110 -29z"/>
<path d="M291 331 c-8 -5 -11 -45 -9 -137 3 -121 4 -129 23 -129 19 0 20 6 19
93 -1 50 2 92 6 92 4 0 29 -26 56 -57 81 -98 116 -132 130 -126 11 4 14 34 14
134 0 122 -1 129 -20 129 -19 0 -20 -7 -20 -90 0 -50 -4 -90 -9 -90 -5 0 -42
40 -82 90 -75 92 -88 103 -108 91z"/>
<path d="M625 208 c0 -73 3 -135 7 -138 4 -3 44 -5 89 -4 74 2 84 5 110 30 27
26 29 33 29 109 0 76 -2 83 -28 108 -26 25 -34 27 -118 27 l-89 0 0 -132z
m177 75 c14 -12 18 -31 18 -79 0 -56 -3 -65 -27 -84 -20 -16 -38 -20 -72 -18
l-46 3 -3 98 -3 97 57 0 c39 0 63 -5 76 -17z"/>
<path d="M1850 200 c0 -141 0 -141 23 -138 19 3 22 9 22 53 l0 50 65 5 c51 4
66 9 68 23 3 15 -5 17 -62 17 l-66 0 0 45 0 45 76 0 c66 0 75 2 72 18 -3 14
-17 17 -101 20 l-97 3 0 -141z"/>
<path d="M2115 205 l0 -136 100 3 c79 2 100 6 103 18 2 13 -10 15 -78 12 l-80
-4 0 40 0 41 62 3 c50 2 63 6 66 21 3 15 -5 17 -62 17 l-66 0 0 40 0 40 76 0
c65 0 75 2 70 16 -3 9 -6 18 -6 20 0 2 -42 4 -92 4 l-93 0 0 -135z"/>
<path d="M930 231 c0 -83 3 -102 20 -124 38 -47 129 -58 185 -21 30 20 34 33
37 152 3 90 2 92 -19 92 -22 0 -23 -3 -23 -98 0 -97 0 -98 -29 -115 -36 -21
-70 -22 -99 -1 -20 14 -22 23 -22 115 0 99 0 99 -25 99 -25 0 -25 0 -25 -99z"/>
<path d="M1610 316 c0 -11 -54 -156 -87 -234 -3 -8 4 -12 20 -12 19 0 28 7 36
30 10 29 12 30 75 30 62 0 65 -1 78 -30 9 -21 20 -30 35 -30 13 0 23 1 23 3 0
2 -20 54 -45 116 -25 62 -45 119 -45 127 0 10 -13 14 -45 14 -32 0 -45 -4 -45
-14z m65 -63 c33 -80 33 -83 -20 -83 -44 0 -47 1 -41 23 8 32 35 97 41 97 3 0
12 -17 20 -37z"/>
</g>
</svg>
